<svg xmlns="http://www.w3.org/2000/svg" version="1.0" width="48.000000pt" height="48.000000pt" viewBox="0 0 48.000000 48.000000" preserveAspectRatio="xMidYMid meet">

<g transform="translate(0.000000,48.000000) scale(0.100000,-0.100000)" fill="#ffffff" stroke="none">
<path d="M115 419 c-4 -6 18 -48 49 -95 l56 -84 -56 -84 c-50 -76 -60 -106 -34 -106 5 0 32 34 61 75 28 41 53 75 54 75 1 0 26 -34 54 -75 29 -41 56 -75 61 -75 26 0 16 30 -34 106 l-56 84 56 84 c50 76 60 106 34 106 -5 0 -32 -34 -61 -75 -28 -41 -53 -75 -54 -75 -1 0 -26 34 -54 75 -52 75 -64 85 -76 64z" fill="#ffffff"/>
</g>
</svg>